<?xml version="1.0" encoding="utf-8"?>
<!-- Generator: Adobe Illustrator 17.0.0, SVG Export Plug-In . SVG Version: 6.00 Build 0)  -->
<!DOCTYPE svg PUBLIC "-//W3C//DTD SVG 1.1//EN" "http://www.w3.org/Graphics/SVG/1.1/DTD/svg11.dtd">
<svg version="1.1" id="Layer_1" xmlns="http://www.w3.org/2000/svg" xmlns:xlink="http://www.w3.org/1999/xlink" x="0px" y="0px"
	 width="56.693px" height="56.693px" viewBox="0 0 56.693 56.693" enable-background="new 0 0 56.693 56.693" xml:space="preserve">
<circle fill="#010066" cx="28.441" cy="29.548" r="24.857"/>
<g enable-background="new    ">
	<path fill="#FFFFFF" d="M24.963,29.751H19.01v3.841h6.649v3H15.338V20.414h9.985v3.001H19.01v3.36h5.953V29.751z"/>
	<path fill="#FFFFFF" d="M28.154,36.592V20.414h4.273l3.36,5.929c0.96,1.704,1.92,3.721,2.64,5.545h0.072
		c-0.24-2.137-0.312-4.32-0.312-6.745v-4.729h3.359v16.178h-3.84l-3.456-6.24c-0.96-1.729-2.017-3.816-2.809-5.713l-0.072,0.024
		c0.097,2.136,0.145,4.416,0.145,7.057v4.872H28.154z"/>
</g>
</svg>
