<?xml version="1.0" encoding="utf-8"?>
<!-- Generator: Adobe Illustrator 17.0.0, SVG Export Plug-In . SVG Version: 6.00 Build 0)  -->
<!DOCTYPE svg PUBLIC "-//W3C//DTD SVG 1.1//EN" "http://www.w3.org/Graphics/SVG/1.1/DTD/svg11.dtd">
<svg version="1.1" id="Layer_1" xmlns="http://www.w3.org/2000/svg" xmlns:xlink="http://www.w3.org/1999/xlink" x="0px" y="0px"
	 width="56.693px" height="56.693px" viewBox="0 0 56.693 56.693" enable-background="new 0 0 56.693 56.693" xml:space="preserve">
<circle fill="#1EB53A" cx="28.441" cy="29.548" r="24.857"/>
<g enable-background="new    ">
	<path fill="#FFFFFF" d="M12.915,32.673c0.984,0.504,2.496,1.009,4.057,1.009c1.68,0,2.568-0.696,2.568-1.753
		c0-1.008-0.768-1.584-2.712-2.28c-2.688-0.935-4.44-2.423-4.44-4.776c0-2.76,2.304-4.872,6.121-4.872
		c1.824,0,3.168,0.384,4.128,0.816l-0.816,2.952C21.172,23.456,20.019,23,18.435,23s-2.352,0.721-2.352,1.561
		c0,1.032,0.912,1.488,3,2.28c2.856,1.056,4.201,2.543,4.201,4.824c0,2.712-2.088,5.017-6.529,5.017
		c-1.848,0-3.672-0.48-4.584-0.984L12.915,32.673z"/>
	<path fill="#FFFFFF" d="M28.371,36.441l-3.84-16.177h3.913l1.225,6.673c0.359,1.919,0.695,4.008,0.96,5.64h0.048
		c0.264-1.752,0.648-3.696,1.056-5.688l1.368-6.625h3.889l1.296,6.817c0.36,1.895,0.624,3.624,0.864,5.423h0.048
		c0.24-1.8,0.601-3.696,0.937-5.616l1.319-6.625h3.721l-4.176,16.177h-3.961l-1.368-6.961c-0.312-1.631-0.576-3.143-0.768-4.992
		h-0.048c-0.288,1.824-0.553,3.36-0.937,4.992l-1.536,6.961H28.371z"/>
</g>
</svg>
